# xmcd CD database file
#
# Track frame offsets:
#	150
#	41947
#	64539
#	82038
#	112908
#	145154
#	165662
#	184610
#	239993
#	280765
#
# Disc length: 4205 seconds
#
# Revision: 1
# Processed by: cddbd v1.5PL3 Copyright (c) Steve Scherf et al.
# Submitted via: CDex 1.51
#
DISCID=8d106b0a
DTITLE=Various Artist - Guitar Art Festival Beograd 2000 - CD 1
DYEAR=1900
DGENRE=Jazz
TTITLE0=Jovano, Jovanke-Vlatko Stefanovski/Miroslav Tadic
TTITLE1=So Far So Close (Dragana Jovanovic)-Vladan Nedeljkov
TTITLE2=Intro DJudjino Oro-Vojislav Ivanovic
TTITLE3=Jutro Lazarevo-Levantinski Jazz Kvartet
TTITLE4=Djavolov Dah-Vladan Nedeljkov
TTITLE5=Seobe-Bogdanovic-Tadic
TTITLE6=Nas Hleb Nasusni-Bogdanovic-Tadic
TTITLE7=Zenska Igra-Bogdanovic-Tadic
TTITLE8=Gitaristicke Meditacije-Vlatko Stefanovski
TTITLE9=Zapevala Sojka Ptica-Bogdanovic-Stefanovski-Tadic-Petrovic-Ivanovic
EXTD=
EXTT0=
EXTT1=
EXTT2=
EXTT3=
EXTT4=
EXTT5=
EXTT6=
EXTT7=
EXTT8=
EXTT9=
PLAYORDER=
